# xmcd
# 
# Track frame offsets:
#     150
#     15785
#     42042
#     55587
#     75495
#     91100
#     119360
#     134430
# 
# Disc length: 2073
# 
# Revision: 7
# Processed by: cddbd v1.5.2PL0 Copyright (c) Steve Scherf et al.
# Submitted via: fre:ac v1.0.17
# 
DISCID=4e081708
DTITLE=Megadeth - So Far, So Good... So What!
DYEAR=1988
DGENRE=Thrash Metal
TTITLE0=Into The Lungs Of Hell
TTITLE1=Set The World Afire
TTITLE2=Anarchy In The U.K.
TTITLE3=Mary Jane
TTITLE4=502
TTITLE5=In My Darkest Hour
TTITLE6=Liar
TTITLE7=Hook In Mouth
EXTD=
EXTT0=
EXTT1=
EXTT2=
EXTT3=
EXTT4=
EXTT5=
EXTT6=
EXTT7=
PLAYORDER=
